<?xml version='1.0' encoding='UTF-8'?>
<!DOCTYPE svg PUBLIC "-//W3C//DTD SVG 1.0//EN" "http://www.w3.org/TR/2001/REC-SVG-20010904/DTD/svg10.dtd">
<svg viewBox="0 0 442 180" xmlns="http://www.w3.org/2000/svg" xmlns:inkspace="http://www.inkscape.org/namespaces/inkscape" xmlns:xlink="http://www.w3.org/1999/xlink">
  <defs id="defs_block">
    <filter height="1.504" id="filter_blur" inkspace:collect="always" width="1.1575" x="-0.07875" y="-0.252">
      <feGaussianBlur id="feGaussianBlur3780" inkspace:collect="always" stdDeviation="4.2" />
    </filter>
  </defs>
  <title>blockdiag</title>
  <desc />
  <rect fill="none" height="120" style="filter:url(#filter_blur)" width="1" x="154" y="9" />
  <rect fill="none" height="120" style="filter:url(#filter_blur)" width="1" x="287" y="9" />
  <rect fill="none" height="120" style="filter:url(#filter_blur)" width="128" x="157" y="9" />
  <ellipse cx="224" cy="33" fill="rgb(0,0,0)" rx="19.0" ry="19.0" stroke="rgb(0,0,0)" style="filter:url(#filter_blur);opacity:0.7;fill-opacity:1" />
  <ellipse cx="224" cy="75" fill="rgb(0,0,0)" rx="19.0" ry="19.0" stroke="rgb(0,0,0)" style="filter:url(#filter_blur);opacity:0.7;fill-opacity:1" />
  <ellipse cx="224" cy="117" fill="rgb(0,0,0)" rx="19.0" ry="19.0" stroke="rgb(0,0,0)" style="filter:url(#filter_blur);opacity:0.7;fill-opacity:1" />
  <ellipse cx="77" cy="27" fill="none" rx="8.0" ry="8.0" stroke="rgb(0,0,0)" stroke-dasharray="0 65535" />
  <text fill="rgb(0,0,0)" font-family="sans-serif" font-size="11" font-style="normal" font-weight="normal" text-anchor="middle" textLength="60" x="115.0" y="25">EXPRESSION</text>
  <ellipse cx="365" cy="27" fill="white" rx="8.0" ry="8.0" stroke="rgb(0,0,0)" stroke-dasharray="0 65535" />
  <ellipse cx="365.0" cy="27.0" fill="none" rx="4.0" ry="4.0" stroke="rgb(0,0,0)" stroke-dasharray="0 65535" />
  <ellipse cx="221" cy="27" fill="rgb(255,255,255)" rx="19.0" ry="19.0" stroke="rgb(0,0,0)" />
  <text fill="rgb(0,0,0)" font-family="sans-serif" font-size="14" font-style="normal" font-weight="normal" text-anchor="middle" textLength="22" x="221.0" y="34">INT</text>
  <ellipse cx="221" cy="69" fill="rgb(255,255,255)" rx="19.0" ry="19.0" stroke="rgb(0,0,0)" />
  <text fill="rgb(0,0,0)" font-family="sans-serif" font-size="14" font-style="normal" font-weight="normal" text-anchor="middle" textLength="7" x="221.5" y="76">+</text>
  <ellipse cx="221" cy="111" fill="rgb(255,255,255)" rx="19.0" ry="19.0" stroke="rgb(0,0,0)" />
  <text fill="rgb(0,0,0)" font-family="sans-serif" font-size="14" font-style="normal" font-weight="normal" text-anchor="middle" textLength="7" x="221.5" y="118">-</text>
  <path d="M 85 27 L 154 27" fill="none" stroke="rgb(0,0,0)" />
  <path d="M 154 27 L 194 27" fill="none" stroke="rgb(0,0,0)" />
  <polygon fill="rgb(0,0,0)" points="201,27 194,23 194,31 201,27" stroke="rgb(0,0,0)" />
  <path d="M 154 69 L 202 69" fill="none" stroke="rgb(0,0,0)" />
  <path d="M 154 69 L 154 35" fill="none" stroke="rgb(0,0,0)" />
  <polygon fill="rgb(0,0,0)" points="154,28 150,35 158,35 154,28" stroke="rgb(0,0,0)" />
  <path d="M 154 111 L 202 111" fill="none" stroke="rgb(0,0,0)" />
  <path d="M 154 111 L 154 69" fill="none" stroke="rgb(0,0,0)" />
  <path d="M 287 27 L 349 27" fill="none" stroke="rgb(0,0,0)" />
  <polygon fill="rgb(0,0,0)" points="356,27 349,23 349,31 356,27" stroke="rgb(0,0,0)" />
  <path d="M 287 27 L 287 69" fill="none" stroke="rgb(0,0,0)" />
  <path d="M 287 69 L 287 111" fill="none" stroke="rgb(0,0,0)" />
  <path d="M 240 27 L 287 27" fill="none" stroke="rgb(0,0,0)" />
  <path d="M 248 69 L 287 69" fill="none" stroke="rgb(0,0,0)" />
  <polygon fill="rgb(0,0,0)" points="241,69 248,65 248,73 241,69" stroke="rgb(0,0,0)" />
  <path d="M 248 111 L 287 111" fill="none" stroke="rgb(0,0,0)" />
  <polygon fill="rgb(0,0,0)" points="241,111 248,107 248,115 241,111" stroke="rgb(0,0,0)" />
</svg>
